<svg width="18" height="21" viewBox="0 0 18 21" fill="none" xmlns="http://www.w3.org/2000/svg">
<path d="M16.7209 7.06712C15.3067 7.92005 14.4332 9.38222 14.4332 11.0068C14.4332 12.8345 15.5563 14.4998 17.2617 15.1903C16.9289 16.2463 16.4298 17.221 15.8059 18.1146C14.8908 19.3737 13.9341 20.6734 12.5199 20.6734C11.1057 20.6734 10.6897 19.8611 9.02597 19.8611C7.40379 19.8611 6.82147 20.714 5.49045 20.714C4.15944 20.714 3.24436 19.5361 2.2045 18.074C0.831888 16.0432 0.0415955 13.6875 9.81787e-07 11.2099C6.29625e-07 7.18897 2.66204 5.03634 5.32408 5.03634C6.73828 5.03634 7.90293 5.92989 8.77641 5.92989C9.60829 5.92989 10.9393 4.99572 12.5199 4.99572C14.1837 4.95511 15.7643 5.72681 16.7209 7.06712ZM11.7712 3.28987C12.4783 2.47755 12.8527 1.46216 12.8942 0.406155C12.8942 0.284308 12.8942 0.121846 12.8527 -1.12157e-06C11.6464 0.121846 10.5234 0.690465 9.73308 1.58401C9.02597 2.35571 8.61003 3.33048 8.56844 4.38649C8.56844 4.50834 8.56844 4.63018 8.61003 4.75203C8.69322 4.75203 8.818 4.79265 8.90119 4.79265C10.0242 4.71141 11.0641 4.1428 11.7712 3.28987Z" fill="white"/>
</svg>
