<svg width="20" height="19" viewBox="0 0 20 19" fill="none" xmlns="http://www.w3.org/2000/svg">
<path d="M8.98241 1.6C9.33241 0.8 10.4674 0.8 10.8164 1.6L12.5684 5.622C12.641 5.78839 12.7576 5.93186 12.9056 6.03704C13.0536 6.14221 13.2274 6.20511 13.4084 6.219L17.8714 6.561C18.7714 6.63 19.1264 7.761 18.4274 8.332L15.0974 11.055C14.9507 11.175 14.8412 11.3342 14.7815 11.5141C14.7219 11.694 14.7145 11.8871 14.7604 12.071L15.7904 16.19C16.0044 17.048 15.0804 17.742 14.3164 17.296L10.4034 15.015C10.2504 14.9257 10.0765 14.8787 9.89941 14.8787C9.7223 14.8787 9.54837 14.9257 9.39541 15.015L5.48241 17.296C4.71841 17.742 3.79441 17.048 4.00841 16.19L5.03841 12.071C5.08385 11.8871 5.07611 11.694 5.0161 11.5143C4.95608 11.3346 4.84626 11.1757 4.69941 11.056L1.36941 8.333C0.671406 7.762 1.02741 6.631 1.92641 6.562L6.38841 6.22C6.56942 6.20611 6.74325 6.14321 6.89123 6.03804C7.03921 5.93286 7.15577 5.78939 7.22841 5.623L8.98241 1.6Z" stroke="#1E1E1E" stroke-width="2"/>
</svg>
