<svg width="24" height="22" viewBox="0 0 24 22" fill="none" xmlns="http://www.w3.org/2000/svg">
<path d="M19.4628 1.13295C20.2464 1.74735 20.7864 2.73975 21.0072 3.77895L21.0852 3.81015L23.5392 4.94535C23.6763 5.00845 23.7925 5.10941 23.8741 5.23633C23.9557 5.36324 23.9994 5.51084 24 5.66175V20.5021C23.9991 20.6254 23.9697 20.7468 23.914 20.8568C23.8584 20.9668 23.778 21.0624 23.6791 21.1361C23.5803 21.2098 23.4658 21.2596 23.3445 21.2816C23.2232 21.3036 23.0984 21.2972 22.98 21.2629L16.1772 19.3429L8.0892 21.5725C7.94331 21.6129 7.78899 21.6112 7.644 21.5677L0.5688 19.4617C0.405265 19.4137 0.261588 19.3142 0.159114 19.178C0.0566412 19.0418 0.000839592 18.8762 0 18.7057L0 3.59895C0 3.07095 0.5136 2.69175 1.026 2.84055L7.8684 4.83375L11.346 3.76935C11.394 3.75495 11.4428 3.74495 11.4924 3.73935C11.6268 2.95215 12.0024 2.19615 12.6324 1.45935C13.38 0.583347 14.6916 0.0697475 15.9696 0.00854749C17.2956 -0.0550525 18.3084 0.228147 19.4616 1.13175M1.5996 4.65855V18.1165L7.4436 19.8553V6.35895L1.5996 4.65855ZM11.4504 5.39535L9.0432 6.13095V19.6657L15.1212 17.9929V14.0389C15.1212 13.6021 15.48 13.2481 15.9216 13.2481C16.3632 13.2481 16.7208 13.6021 16.7208 14.0401V17.8525L22.4004 19.4545V6.16455L21.0564 5.54055C21.034 5.67255 21.0048 5.80175 20.9688 5.92815C20.7088 6.84864 20.271 7.70926 19.68 8.46135L16.7076 12.1729C16.6293 12.2705 16.5294 12.3485 16.4157 12.4007C16.302 12.4529 16.1777 12.4778 16.0527 12.4735C15.9277 12.4692 15.8054 12.4357 15.6955 12.3759C15.5857 12.316 15.4914 12.2313 15.42 12.1285L12.642 8.10495C12.1828 7.46575 11.8624 6.89135 11.6808 6.38175C11.5666 6.06281 11.4893 5.73186 11.4504 5.39535ZM16.0464 1.59015C15.1752 1.63215 14.28 1.98255 13.854 2.48055C13.3416 3.08055 13.0896 3.64215 13.0392 4.21095C12.9792 4.89615 13.02 5.37975 13.1904 5.85855C13.3164 6.21255 13.5672 6.66135 13.9548 7.20255L16.128 10.3489L18.42 7.48695C18.8827 6.89621 19.2255 6.22076 19.4292 5.49855C19.7172 4.49055 19.2828 3.00975 18.4692 2.37375C17.6352 1.71975 17.0052 1.54335 16.0476 1.59015M16.2132 2.42655C17.538 2.42655 18.6132 3.48855 18.6132 4.79895C18.6091 5.43166 18.354 6.03688 17.904 6.48169C17.454 6.9265 16.8459 7.17454 16.2132 7.17135C14.8884 7.17135 13.8132 6.10935 13.8132 4.79895C13.8132 3.48855 14.8884 2.42655 16.2132 2.42655ZM16.2132 4.00815C16.1087 4.00752 16.0051 4.02747 15.9084 4.06687C15.8116 4.10627 15.7235 4.16434 15.6492 4.23778C15.5749 4.31121 15.5158 4.39856 15.4752 4.49485C15.4346 4.59113 15.4134 4.69447 15.4128 4.79895C15.4128 5.23575 15.7716 5.58975 16.2132 5.58975C16.3177 5.59022 16.4212 5.57011 16.5179 5.53057C16.6146 5.49102 16.7026 5.43281 16.7768 5.35927C16.851 5.28573 16.91 5.19828 16.9505 5.10194C16.9909 5.00559 17.0119 4.90223 17.0124 4.79775C17.0108 4.58716 16.9258 4.38579 16.776 4.23778C16.6262 4.08977 16.4238 4.00719 16.2132 4.00815Z" fill="#1E1E1E"/>
</svg>
