<svg width="12" height="12" viewBox="0 0 12 12" fill="none" xmlns="http://www.w3.org/2000/svg">
<path d="M10.0153 0.884C10.6319 1.00267 10.7706 1.392 10.9546 2.47333C11.1206 3.44667 11.1673 4.61533 11.1673 5.11333C11.1504 5.29615 11.0759 5.4689 10.9546 5.60667C9.6646 6.95867 7.10393 9.512 5.81193 10.78C5.30526 11.2333 4.53993 11.2433 4.00126 10.8273C2.89926 9.836 1.8406 8.71533 0.803263 7.704C0.386596 7.16667 0.396596 6.404 0.84993 5.898C2.21726 4.48 4.69126 2.05267 6.08726 0.711333C6.22726 0.591333 6.39926 0.516667 6.5826 0.5C6.89593 0.5 7.43326 0.542 7.95726 0.572" stroke="#1597A8" stroke-linecap="round"/>
</svg>
